<svg xmlns="http://www.w3.org/2000/svg" xmlns:xlink="http://www.w3.org/1999/xlink" width="256" height="256" viewBox="0 0 256 256" fill="none">
<g >
<path     fill="#000000"  d="M111.522 50.184Q142.026 50.184 142.026 82.656L142.026 211.806L107.586 211.806L107.586 158.424L82.74 158.424L82.74 211.806L48.3 211.806L48.3 82.656Q48.3 50.184 78.804 50.184L111.522 50.184ZM82.74 131.856L107.586 131.856L107.586 78.474Q107.586 76.506 106.233 75.03Q104.88 73.554 102.912 73.554L87.414 73.554Q85.446 73.554 84.093 75.03Q82.74 76.506 82.74 78.474L82.74 131.856Z">
</path>
</g>
<g >
<path     fill="#000000"  d="M170.72 112.272Q170.72 108.408 170.972 106.476Q171.224 104.544 172.568 102.024Q174.92 97.488 185.672 97.488Q197.432 97.488 199.616 103.704Q200.456 106.56 200.456 112.44L200.456 205.848Q200.456 209.88 200.204 211.728Q199.952 213.576 198.608 216.096Q196.256 220.632 185.504 220.632Q173.744 220.632 171.728 214.248Q170.72 211.56 170.72 205.68L170.72 112.272Z">
</path>
</g>
</svg>
